<svg width="35" height="45" xmlns="http://www.w3.org/2000/svg" xlinkHref="http://www.w3.org/1999/xlink">
    <g transform="translate(-579 -405)">
        <path id="tooth" d="M580.665 416.719C580.599 421.184 580.036 429.683 581.46 434.378 582.883 439.074 586.791 442.58 589.208 444.894 591.625 447.209 592.949 449.193 595.962 448.267 598.975 447.342 604.604 443.175 607.286 439.339 609.968 435.503 611.591 430.344 612.054 425.251 612.518 420.159 613.346 411.858 610.068 408.783 606.79 405.707 597.088 406.997 592.386 406.799 587.685 406.6 583.81 405.939 581.857 407.592 579.903 409.246 580.731 412.255 580.665 416.719Z" stroke="#624DE3" stroke-width="1.33333" stroke-miterlimit="8" fill="#FFFFFF" fill-rule="evenodd" />
    </g>
</svg>