<svg width="40" height="70" xmlns="http://www.w3.org/2000/svg" xlinkHref="http://www.w3.org/1999/xlink">
    <g transform="translate(-137 -449)">
        <path id="root" d="M139.794 451.5 144.147 454.675C148.156 456.647 153.694 457.866 159.811 457.866 162.87 457.866 165.784 457.561 168.434 457.01L174.99 454.836 175.372 458.542C175.545 461.603 175.528 465.387 175.41 469.491 175.174 477.698 174.23 493.742 172.781 501.176 171.332 508.609 168.468 513.285 166.715 514.092 164.963 514.899 162.941 510.19 162.267 506.019 161.593 501.849 163.379 493.978 162.671 489.067 161.964 484.156 159.773 478.034 158.021 476.554 156.268 475.074 153.235 476.924 152.157 480.187 151.078 483.45 151.954 490.143 151.55 496.13 151.146 502.118 150.943 512.982 149.73 516.11 148.517 519.238 146.023 519.743 144.271 514.899 142.518 510.056 140.126 496.366 139.216 487.049 138.306 477.732 138.373 465.387 138.811 458.996Z" stroke="#624DE3" stroke-width="1.33333" stroke-miterlimit="8" fill="#FFFFFF" fill-rule="evenodd" />
    </g>
</svg>