<svg width="49" height="45" xmlns="http://www.w3.org/2000/svg" xlinkHref="http://www.w3.org/1999/xlink">
    <g transform="translate(-133 -409)">
        <path id="tooth" d="M135.118 426.574C135.959 430.894 138.145 440.672 140.163 444.657 142.181 448.642 141.677 449.378 147.226 450.483 152.776 451.588 168.146 453.933 173.46 451.287 178.774 448.642 177.9 440.772 179.111 434.611 180.321 428.449 182.743 418.068 180.725 414.318 178.707 410.567 170.568 412.744 167.003 412.107 163.437 411.471 162.428 410.5 159.334 410.5 156.24 410.5 151.598 411.806 148.437 412.107 145.275 412.409 142.585 411.203 140.365 412.308 138.145 413.413 135.925 416.528 135.118 418.738 134.311 420.948 134.277 422.254 135.118 426.574Z" stroke="#624DE3" stroke-width="1.33333" stroke-miterlimit="8" fill="#FFFFFF" fill-rule="evenodd" />
    </g>
</svg>