<svg width="35" height="71" xmlns="http://www.w3.org/2000/svg" xlinkHref="http://www.w3.org/1999/xlink">
    <g transform="translate(-361 -453)">
        <path id="root" d="M362.51 455.5 362.987 455.793C369.303 458.97 381.846 462.045 386.866 461.426 388.539 461.22 390.16 460.632 391.651 459.773L395.5 456.623 395.438 457.345C395.299 458.331 395.086 459.596 394.802 461.238 393.665 467.807 389.552 483.224 387.78 492.731 386.007 502.238 385.506 513.429 384.168 518.282 382.831 523.134 381.493 522.969 379.754 521.847 378.016 520.724 376.076 518.546 373.735 511.547 371.395 504.549 367.583 488.208 365.71 479.857 363.838 471.505 362.834 466.421 362.5 461.436Z" stroke="#624DE3" stroke-width="1.33333" stroke-miterlimit="8" fill="#FFFFFF" fill-rule="evenodd" />
    </g>
</svg>