<svg width="41" height="48" xmlns="http://www.w3.org/2000/svg" xmlns:xlink="http://www.w3.org/1999/xlink">
    <g transform="translate(-358 -409)">
        <path id="tooth" d="M359.729 430.73C359.965 434.714 359.763 442.909 361.549 446.598 363.336 450.288 366.369 451.43 370.448 452.867 374.526 454.304 381.74 456.23 386.02 455.218 390.301 454.206 394.144 452.018 396.132 446.794 398.121 441.57 399.233 429.163 397.952 423.874 396.672 418.585 391.852 417.115 388.447 415.058 385.043 413.001 381.402 411.238 377.526 411.532 373.65 411.826 368.088 414.96 365.19 416.821 362.291 418.682 361.044 420.446 360.134 422.698 359.223 424.951 359.493 426.747 359.729 430.73Z" stroke="#624DE3" stroke-width="1.33333" stroke-miterlimit="8" fill="#FFFFFF" fill-rule="evenodd" />
    </g>
</svg>