<svg width="38" height="88" xmlns="http://www.w3.org/2000/svg" xmlns:xlink="http://www.w3.org/1999/xlink" overflow="hidden"><defs><clipPath id="clip0"><rect x="800" y="444" width="38" height="88"/></clipPath></defs><g clip-path="url(#clip0)" transform="translate(-800 -444)"><path d="M0 0 0.115741 0.43915C2.83437 5.86171 14.0359 11.5654 19.268 11.9746 24.5 12.3838 32.919 8.21465 34.9419 3.16295L35 2.87636 34.9025 5.59322C34.4314 11.3054 32.6478 24.9678 31.0662 33.4525 29.4846 41.9372 26.7252 49.353 25.4127 56.5016 24.1003 63.6501 24.1339 72.2684 23.1917 76.3438 22.2494 80.4191 21.3072 81.2208 19.7592 80.9536 18.2112 80.6864 15.5527 79.1831 13.9038 74.7404 12.2549 70.2976 11.7165 62.4476 9.86562 54.2969 8.01483 46.1462 4.34674 33.7866 2.79876 25.8363 1.25078 17.886 0.880562 11.7062 0.577749 6.59535Z" stroke="#624DE3" stroke-width="1.33333" stroke-miterlimit="8" fill="#FFFFFF" fill-rule="evenodd" transform="matrix(-1 0 0 1 836.5 450.5)"/></g></svg>