<svg width="43" height="53" xmlns="http://www.w3.org/2000/svg" xmlns:xlink="http://www.w3.org/1999/xlink" overflow="hidden"><defs><clipPath id="clip0"><rect x="797" y="406" width="43" height="53"/></clipPath></defs><g clip-path="url(#clip0)" transform="translate(-797 -406)"><path d="M0.242108 16.8211C0.142675 20.269-0.686426 27.8219 1.43594 32.5833 3.5583 37.3449 9.49434 42.6646 12.9763 45.3901 16.4583 48.1156 18.8791 49.2979 22.328 48.9366 25.7768 48.5754 30.917 47.0648 33.6694 43.2228 36.4217 39.3808 38.0136 30.5474 38.8426 25.8844 39.6717 21.2214 41.0644 19.4481 38.6437 15.2449 36.2229 11.0416 28.5955 2.6351 24.3177 0.664826 20.0398-1.30545 16.6904 1.5515 12.9763 3.42321 9.26216 5.29492 4.15522 9.66242 2.03285 11.8954-0.0895112 14.1284 0.341542 13.3732 0.242108 16.8211Z" stroke="#624DE3" stroke-width="1.33333" stroke-miterlimit="8" fill="#FFFFFF" fill-rule="evenodd" transform="matrix(-1 0 0 1 839.5 408.5)"/></g></svg>