<svg width="51" height="23" xmlns="http://www.w3.org/2000/svg" xmlns:xlink="http://www.w3.org/1999/xlink" overflow="hidden"><defs><clipPath id="clip0"><rect x="1014" y="376" width="51" height="23"/></clipPath></defs><g clip-path="url(#clip0)" transform="translate(-1014 -376)"><path d="M11.0064 27.6174C7.92241 31.139 4.20462 33.1953 0.202625 33.1953L0.100472 33.1778 0 11.0182 0.0247769 11.023 0.0695013 11.0318C2.98709 11.0364 5.90635 9.92808 8.13585 7.70572 9.2506 6.59454 10.0875 5.30992 10.6461 3.93848L11.419 0 19.4669 0.0418898 19.5258 0.535013C19.5258 11.8087 16.1464 21.7481 11.0064 27.6174Z" stroke="#624DE3" stroke-width="1.33333" stroke-miterlimit="8" fill="#FFFFFF" fill-rule="evenodd" transform="matrix(-0.708236 0.705976 0.705976 0.708236 1039.45 369.849)"/><path d="M1027.21 397.179C1035 396.651 1044.41 391.997 1052.37 384.013L1052.84 383.408 1047.19 377.712 1043.56 380.154C1042.2 380.731 1040.7 381.05 1039.13 381.05 1035.98 381.05 1033.13 379.774 1031.06 377.711L1031.06 377.709 1015.56 393.406 1015.62 393.502C1018.46 396.327 1022.54 397.496 1027.21 397.179Z" stroke="#624DE3" stroke-width="1.33333" stroke-miterlimit="8" fill="#FFFFFF" fill-rule="evenodd"/><rect x="0" y="0" width="4.7999" height="4.7999" fill="#FFFFFF" transform="matrix(0.854592 0.519301 0.519301 -0.854592 1037.33 391.456)"/><rect x="0" y="0" width="4.79989" height="10.914" fill="#FFFFFF" transform="matrix(0.723246 0.69059 0.69059 -0.723246 1043.34 390.421)"/><rect x="0" y="0" width="4.79989" height="4.79989" fill="#FFFFFF" transform="matrix(0.723246 0.69059 0.69059 -0.723246 1040.15 391.48)"/></g></svg>