<svg width="23" height="50" xmlns="http://www.w3.org/2000/svg" xmlns:xlink="http://www.w3.org/1999/xlink" overflow="hidden"><defs><clipPath id="clip0"><rect x="1010" y="345" width="23" height="50"/></clipPath></defs><g clip-path="url(#clip0)" transform="translate(-1010 -345)"><path d="M1011.43 357.769C1011.11 353.099 1012.28 349.014 1015.1 346.18L1015.19 346.12 1030.95 361.693 1030.93 361.707 1030.89 361.732C1028.83 363.795 1027.55 366.645 1027.55 369.793 1027.55 371.367 1027.87 372.867 1028.45 374.231L1030.69 377.558 1024.98 383.229 1024.59 382.922C1016.61 374.963 1011.95 365.553 1011.43 357.769Z" stroke="#624DE3" stroke-width="1.33333" stroke-miterlimit="8" fill="#FFFFFF" fill-rule="evenodd"/><path d="M11.0197 27.887C16.1597 22.0177 19.5391 12.0783 19.5391 0.804619L19.448 0.0417848 11.4213 0 10.5797 4.28766C10.0211 5.65911 9.18425 6.94373 8.0695 8.05491 5.84 10.2773 2.92073 11.3856 0.00325459 11.381L0 11.3804 0.0999475 33.4451 0.215958 33.4649C4.21795 33.4649 7.93575 31.4086 11.0197 27.887Z" stroke="#624DE3" stroke-width="1.33333" stroke-miterlimit="8" fill="#FFFFFF" fill-rule="evenodd" transform="matrix(-0.705976 -0.708236 -0.708236 0.705976 1038.96 369.822)"/><path d="M1017.15 371.59 1014.66 367.488 1018.76 364.995 1021.25 369.097Z" fill="#FFFFFF" fill-rule="evenodd"/><path d="M1018.18 365.574 1014.87 362.103 1022.76 354.566 1026.08 358.037Z" fill="#FFFFFF" fill-rule="evenodd"/><path d="M1017.12 368.768 1013.81 365.296 1017.28 361.982 1020.6 365.453Z" fill="#FFFFFF" fill-rule="evenodd"/></g></svg>