<svg width="23" height="51" xmlns="http://www.w3.org/2000/svg" xmlns:xlink="http://www.w3.org/1999/xlink" overflow="hidden"><defs><clipPath id="clip0"><rect x="1045" y="344" width="23" height="51"/></clipPath></defs><g clip-path="url(#clip0)" transform="translate(-1045 -344)"><path d="M11.0064 27.6174C7.92241 31.139 4.20462 33.1953 0.202625 33.1953L0.100472 33.1778 0 11.0182 0.0247769 11.023 0.0695013 11.0318C2.98709 11.0364 5.90635 9.92808 8.13585 7.70572 9.2506 6.59454 10.0875 5.30992 10.6461 3.93848L11.419 0 19.4669 0.0418898 19.5258 0.535013C19.5258 11.8087 16.1464 21.7481 11.0064 27.6174Z" stroke="#624DE3" stroke-width="1.33333" stroke-miterlimit="8" fill="#FFFFFF" fill-rule="evenodd" transform="matrix(0.705976 0.708236 0.708236 -0.705976 1039.32 369.294)"/><path d="M1066.65 381.527C1066.13 373.743 1061.47 364.333 1053.49 356.374L1052.88 355.9 1047.19 361.555 1049.63 365.178C1050.21 366.542 1050.53 368.042 1050.53 369.616 1050.53 372.764 1049.25 375.614 1047.19 377.677L1047.18 377.679 1062.88 393.185 1062.98 393.117C1065.8 390.282 1066.97 386.198 1066.65 381.527Z" stroke="#624DE3" stroke-width="1.33333" stroke-miterlimit="8" fill="#FFFFFF" fill-rule="evenodd"/><rect x="0" y="0" width="4.7999" height="4.7999" fill="#FFFFFF" transform="matrix(0.519301 -0.854592 -0.854592 -0.519301 1060.93 371.412)"/><rect x="0" y="0" width="4.79989" height="10.914" fill="#FFFFFF" transform="matrix(0.69059 -0.723246 -0.723246 -0.69059 1059.9 365.397)"/><rect x="0" y="0" width="4.79989" height="4.79989" fill="#FFFFFF" transform="matrix(0.69059 -0.723246 -0.723246 -0.69059 1060.96 368.59)"/></g></svg>