<svg width="50" height="22" xmlns="http://www.w3.org/2000/svg" xmlns:xlink="http://www.w3.org/1999/xlink" overflow="hidden"><defs><clipPath id="clip0"><rect x="1014" y="341" width="50" height="22"/></clipPath></defs><g clip-path="url(#clip0)" transform="translate(-1014 -341)"><path d="M1051.06 342.01C1055.73 341.693 1059.81 342.862 1062.65 345.687L1062.71 345.772 1047.13 361.537 1047.12 361.516 1047.1 361.478C1045.03 359.415 1042.18 358.139 1039.03 358.139 1037.46 358.139 1035.96 358.458 1034.6 359.035L1031.27 361.279 1025.6 355.567 1025.91 355.177C1033.86 347.192 1043.27 342.539 1051.06 342.01Z" stroke="#624DE3" stroke-width="1.33333" stroke-miterlimit="8" fill="#FFFFFF" fill-rule="evenodd"/><path d="M11.0197 27.887C16.1597 22.0177 19.5391 12.0783 19.5391 0.804619L19.448 0.0417848 11.4213 0 10.5797 4.28766C10.0211 5.65911 9.18425 6.94373 8.0695 8.05491 5.84 10.2773 2.92073 11.3856 0.00325459 11.381L0 11.3804 0.0999475 33.4451 0.215958 33.4649C4.21795 33.4649 7.93575 31.4086 11.0197 27.887Z" stroke="#624DE3" stroke-width="1.33333" stroke-miterlimit="8" fill="#FFFFFF" fill-rule="evenodd" transform="matrix(0.708236 -0.705976 -0.705976 -0.708236 1039.01 369.541)"/><path d="M1037.24 347.734 1041.34 345.241 1043.83 349.343 1039.73 351.836Z" fill="#FFFFFF" fill-rule="evenodd"/><path d="M1043.25 348.769 1046.72 345.454 1054.26 353.348 1050.79 356.662Z" fill="#FFFFFF" fill-rule="evenodd"/><path d="M1040.06 347.71 1043.53 344.395 1046.85 347.866 1043.37 351.181Z" fill="#FFFFFF" fill-rule="evenodd"/></g></svg>