<svg width="43" height="63" xmlns="http://www.w3.org/2000/svg" xmlns:xlink="http://www.w3.org/1999/xlink" overflow="hidden"><defs><clipPath id="clip0"><rect x="212" y="137" width="43" height="63"/></clipPath></defs><g clip-path="url(#clip0)" transform="translate(-212 -137)"><path d="M234.715 180.033C235.755 178.009 237.022 167.818 236.275 160.913 235.528 154.009 231.693 139.868 230.23 138.606 228.768 137.345 227.533 147.602 227.501 153.345 227.468 159.087 228.963 169.046 230.035 173.063 231.108 177.079 233.675 182.058 234.715 180.033Z" stroke="#624DE3" stroke-width="1.33333" stroke-miterlimit="8" fill="#FFFFFF" fill-rule="evenodd"/><path d="M243.554 141.667C243.987 141.42 244.426 141.439 244.849 141.779 246.539 143.142 249.224 151.282 250.617 157.728 252.009 164.174 253.003 173.212 253.202 180.456 253.351 185.888 253.855 193.358 253.076 197.861L252.833 198.5 250.876 196.075C246.869 192.507 241.747 190.114 237.288 189.649 232.829 189.184 224.773 191.13 217.732 194.009L213.723 195.856 213.536 195.209C213.391 193.273 213.739 190.74 213.623 187.633 213.391 181.419 214.12 168.859 215.015 161.915 215.91 154.97 217.468 146.398 218.993 145.966 220.518 145.534 222.772 154.073 224.164 159.323 225.556 164.573 225.722 173.013 227.346 177.465 228.971 181.918 231.722 186.636 233.91 186.038 236.098 185.44 239.379 179.957 240.473 173.877 241.567 167.796 239.744 154.904 240.473 149.554 241.02 145.542 242.257 142.409 243.554 141.667Z" stroke="#624DE3" stroke-width="1.33333" stroke-miterlimit="8" fill="#FFFFFF" fill-rule="evenodd"/></g></svg>