<svg width="53" height="50" xmlns="http://www.w3.org/2000/svg" xlinkHref="http://www.w3.org/1999/xlink">
    <g transform="translate(-206 -194)">
        <path d="M256.849 216.48C257.143 221.855 258.746 233.747 255.475 238.048 252.204 242.348 243.732 241.508 237.223 242.281 230.713 243.053 221.129 244.364 216.419 242.684 211.709 241.004 210.008 237.275 208.961 232.202 207.914 227.129 208.797 217.622 210.139 212.247 211.48 206.871 212.461 202.706 217.008 199.951 221.554 197.196 231.302 194.743 237.419 195.718 243.536 196.692 250.47 202.336 253.708 205.796 256.947 209.257 256.554 211.104 256.849 216.48Z" stroke="#624DE3" stroke-width="1.33333" stroke-miterlimit="8" fill="#FFFFFF" fill-rule="evenodd" />
    </g>
</svg>