<svg width="33" height="71" xmlns="http://www.w3.org/2000/svg" xlinkHref="http://www.w3.org/1999/xlink">
    <g transform="translate(-506 -130)">
        <path d="M524.897 131.677C526.505 132.558 527.902 136.567 528.68 140.164 529.718 144.961 528.648 152.821 529.458 160.748 530.269 168.676 532.116 180.333 533.543 187.727 533.899 189.576 534.442 191.479 535.035 193.32L536.5 197.596 535.918 196.887C532.579 194.144 527.966 192.447 522.871 192.447 517.776 192.447 513.163 194.144 509.824 196.887L508.5 198.5 508.514 198.132C508.907 194.814 509.734 190.659 510.204 186.329 511.144 177.669 512.894 162.014 515.066 152.954 517.238 143.895 520.966 134.102 523.235 131.971 523.802 131.438 524.361 131.383 524.897 131.677Z" stroke="#624DE3" stroke-width="1.33333" stroke-miterlimit="8" fill="#FFFFFF" fill-rule="evenodd" />
    </g>
</svg>