<svg width="42" height="48" xmlns="http://www.w3.org/2000/svg" xmlns:xlink="http://www.w3.org/1999/xlink" overflow="hidden"><defs><clipPath id="clip0"><rect x="501" y="197" width="42" height="48"/></clipPath></defs><g clip-path="url(#clip0)" transform="translate(-501 -197)"><path d="M503.29 224.69C503.937 219.705 504.311 210.099 506.966 205.745 509.622 201.391 514.15 198.965 519.222 198.566 524.295 198.167 533.589 199.563 537.402 203.352 541.215 207.141 541.589 215.151 542.1 221.3 542.61 227.449 543.087 236.556 540.466 240.245 537.844 243.934 531.444 243.17 526.371 243.436 521.299 243.702 513.911 243.137 510.03 241.84 506.149 240.544 504.175 238.284 503.085 235.658 501.996 233.033 502.643 229.676 503.29 224.69Z" stroke="#624DE3" stroke-width="1.33333" stroke-miterlimit="8" fill="#FFFFFF" fill-rule="evenodd"/></g></svg>