<svg width="39" height="70" xmlns="http://www.w3.org/2000/svg" xlinkHref="http://www.w3.org/1999/xlink" >

    <g transform="translate(-1095 -449)">
        <path d="M1.29367 0 5.64669 3.17524C9.65549 5.14679 15.1937 6.36616 21.311 6.36616 24.3697 6.36616 27.2836 6.06137 29.9339 5.51006L36.4899 3.33627 36.872 7.04217C37.0447 10.1031 37.0278 13.8871 36.9099 17.9907 36.674 26.1979 35.7303 42.2423 34.2813 49.6758 32.8322 57.1093 29.9676 61.7848 28.2152 62.592 26.4628 63.3993 24.4408 58.6903 23.7668 54.5194 23.0927 50.3485 24.8788 42.4777 24.1712 37.5668 23.4635 32.656 21.2729 26.5342 19.5205 25.0542 17.7681 23.5742 14.7351 25.4243 13.6567 28.6869 12.5782 31.9496 13.4544 38.6432 13.05 44.6304 12.6456 50.6176 12.4434 61.4821 11.2302 64.6102 10.017 67.7383 7.52319 68.2429 5.77077 63.3993 4.01835 58.5557 1.62558 44.8658 0.715721 35.5487-0.194135 26.2315-0.126734 13.8871 0.311317 7.49623Z" stroke="#624DE3" stroke-width="1.33333" stroke-miterlimit="8" fill="#FFFFFF" fill-rule="evenodd" transform="matrix(-1 0 0 1 1133.5 451.5)" />
    </g>
</svg>