<svg width="49" height="45" xmlns="http://www.w3.org/2000/svg" xlinkHref="http://www.w3.org/1999/xlink" >
    <g transform="translate(-1090 -409)">
        <path d="M0.604858 16.0737C1.42785 20.3936 3.56746 30.1718 5.54253 34.1567 7.51759 38.1416 7.02388 38.8784 12.4553 39.9834 17.8866 41.0884 32.9301 43.4326 38.1311 40.7871 43.3322 38.1417 42.4763 30.2722 43.6613 24.1106 44.8464 17.949 47.2165 7.56805 45.2414 3.81751 43.2663 0.0669739 35.3002 2.24357 31.8109 1.60737 28.3216 0.971174 27.3341 0 24.3057 0 21.2772 0 16.7346 1.30604 13.6403 1.60737 10.546 1.9087 7.91261 0.703173 5.74003 1.80829 3.56746 2.91331 1.39489 6.02765 0.604858 8.23779-0.185169 10.4479-0.218139 11.7539 0.604858 16.0737Z" stroke="#624DE3" stroke-width="1.33333" stroke-miterlimit="8" fill="#FFFFFF" fill-rule="evenodd" transform="matrix(-1 0 0 1 1137.5 410.5)" />
    </g>
</svg>