<svg width="31" height="69" xmlns="http://www.w3.org/2000/svg" xmlns:xlink="http://www.w3.org/1999/xlink" overflow="hidden"><defs><clipPath id="clip0"><rect x="661" y="445" width="31" height="69"/></clipPath></defs><g clip-path="url(#clip0)" transform="translate(-661 -445)"><path d="M28 0 26.7112 11.0226C25.6998 20.209 23.5084 39.8706 21.4517 48.6936 19.3951 57.5166 16.3271 63.3654 14.3717 63.9602 12.4163 64.555 11.3374 58.3757 9.71911 52.2624 8.10082 46.1492 6.21281 37.0288 4.66194 27.2806 3.88656 22.4065 2.27666 15.178 1.13461 8.59382L0 0.0633834 2.7666 2.83581C5.63334 4.7727 9.59381 5.97064 13.9683 5.97064 18.3429 5.97064 22.3033 4.7727 25.1701 2.83581Z" stroke="#624DE3" stroke-width="1.33333" stroke-miterlimit="8" fill="#FFFFFF" fill-rule="evenodd" transform="matrix(-1 0 0 1 690.5 448.5)"/></g></svg>