<svg width="35" height="45" xmlns="http://www.w3.org/2000/svg" xlinkHref="http://www.w3.org/1999/xlink" >
    <g transform="translate(-658 -405)">
        <path d="M0.164878 10.2193C0.0986557 14.6836-0.464287 23.1825 0.959546 27.8783 2.38338 32.5742 6.2905 36.0795 8.70756 38.3943 11.1246 40.7092 12.4492 42.6934 15.4622 41.7674 18.4753 40.8415 24.1043 36.6747 26.7863 32.8387 29.4682 29.0027 31.0907 23.8439 31.5543 18.7512 32.0178 13.6585 32.8456 5.35806 29.5676 2.28267 26.2896-0.792726 16.588 0.496925 11.8862 0.298509 7.18445 0.100093 3.31039-0.561293 1.35688 1.09217-0.596627 2.74564 0.2311 5.755 0.164878 10.2193Z" stroke="#624DE3" stroke-width="1.33333" stroke-miterlimit="8" fill="#FFFFFF" fill-rule="evenodd" transform="matrix(-1 0 0 1 691.5 406.5)" />
    </g>
</svg>