<svg width="42" height="65" xmlns="http://www.w3.org/2000/svg" xlinkHref="http://www.w3.org/1999/xlink">
    <g transform="translate(-138 -134)">
        <path d="M170.011 141.657C170.938 141.252 171.98 141.595 172.895 143.1 174.724 146.11 177.738 155.475 178.788 162.766 179.839 170.057 179.5 180.559 179.195 186.847 179.043 189.991 178.941 192.976 178.649 195.388L178.237 197.5 176.284 195.984C171.849 193.142 165.721 191.385 158.953 191.385 152.184 191.385 146.057 193.142 141.621 195.984L139.852 197.358 139.5 195.588C139.513 193.335 140.122 190.442 140.173 187.047 140.275 180.258 141.969 166.378 143.019 159.555 144.069 152.732 145.186 146.879 146.474 146.11 147.761 145.341 149.759 149.956 150.742 154.939 151.724 159.923 150.979 170.826 152.368 176.01 153.756 181.194 156.94 185.509 159.074 186.044 161.208 186.579 163.783 183.402 165.172 179.221 166.56 175.04 166.967 166.712 167.407 160.96 167.848 155.207 166.899 147.682 167.814 144.705 168.271 143.217 169.084 142.063 170.011 141.657Z" stroke="#624DE3" stroke-width="1.33333" stroke-miterlimit="8" fill="#FFFFFF" fill-rule="evenodd" />
        <path d="M160.125 180.233C161.318 178.381 162.95 164.191 162.385 157.013 161.82 149.835 158.211 139.382 156.736 137.166 155.262 134.95 153.787 138.555 153.536 143.715 153.285 148.875 154.414 162.371 155.23 168.127 156.046 173.882 158.933 182.086 160.125 180.233Z" stroke="#624DE3" stroke-width="1.33333" stroke-miterlimit="8" fill="#FFFFFF" fill-rule="evenodd" />
    </g>
</svg>