<svg width="49" height="47" xmlns="http://www.w3.org/2000/svg" xmlns:xlink="http://www.w3.org/1999/xlink" overflow="hidden"><defs><clipPath id="clip0"><rect x="133" y="195" width="49" height="47"/></clipPath></defs><g clip-path="url(#clip0)" transform="translate(-133 -195)"><path d="M180.111 223.972C180.078 226.87 181.232 231.578 179.715 234.245 178.197 236.911 177.405 239.216 171.004 239.973 164.603 240.731 147.215 240.928 141.309 238.788 135.403 236.648 135.964 232.598 135.568 227.133 135.172 221.668 136.525 210.934 138.934 205.996 141.342 201.057 145.598 198.917 150.02 197.501 154.441 196.085 160.908 196.25 165.461 197.501 170.014 198.752 174.93 201.781 177.339 205.008 179.748 208.234 179.385 213.469 179.913 216.861 180.44 220.252 180.144 221.075 180.111 223.972Z" stroke="#624DE3" stroke-width="1.33333" stroke-miterlimit="8" fill="#FFFFFF" fill-rule="evenodd"/></g></svg>