<svg width="36" height="64" xmlns="http://www.w3.org/2000/svg" xlinkHref="http://www.w3.org/1999/xlink" >
    <g transform="translate(-1169 -457)">
        <path d="M0.207834 0 5.25068 0.942789C8.9948 1.48823 13.1111 1.78978 17.432 1.78978 21.7529 1.78978 25.8693 1.48823 29.6133 0.942789L32.9876 0.311922 32.999 0.705074C33.0394 9.18714 31.9796 26.5962 30.7437 34.8075 29.3314 44.1919 25.8825 54.4082 24.4373 53.9757 22.9921 53.5431 23.3206 38.2351 22.0724 32.2118 20.8243 26.1886 18.8207 18.934 16.9485 17.8357 15.0762 16.7375 11.7588 19.6328 10.8391 25.6228 9.91945 31.6128 12.2844 47.9191 11.4304 53.776 10.5764 59.6329 7.52175 64.3252 5.71518 60.7644 3.90871 57.2037 1.51091 42.1952 0.591225 32.4115-0.328459 22.6278 0.0656917 8.31824 0.197075 2.06198Z" stroke="#624DE3" stroke-width="1.33333" stroke-miterlimit="8" fill="#FFFFFF" fill-rule="evenodd" transform="matrix(-1 0 0 1 1204.5 458.5)" />
    </g>
</svg>