<svg width="45" height="44" xmlns="http://www.w3.org/2000/svg" xmlns:xlink="http://www.w3.org/1999/xlink" overflow="hidden"><defs><clipPath id="clip0"><rect x="1165" y="414" width="45" height="44"/></clipPath></defs><g clip-path="url(#clip0)" transform="translate(-1165 -414)"><path d="M1.27363 24.249C1.63882 28.4595 1.4064 32.9416 2.46863 35.6581 3.53086 38.3745 2.56827 39.6988 7.64699 40.5477 12.7257 41.3965 27.1985 43.2302 32.9413 40.7514 38.684 38.2726 40.6756 31.4136 42.103 25.6752 43.5303 19.9367 43.1983 10.1915 41.5055 6.32053 39.8126 2.44961 35.0657 3.50217 31.9454 2.44961 28.8251 1.39693 26.2027 0.106626 22.7837 0.00481259 19.3647-0.0970004 14.2859 1.43094 11.4312 1.83841 8.57643 2.24587 7.51421 1.02348 5.65531 2.44961 3.79641 3.87574 1.17399 6.93173 0.277789 10.3952-0.618412 13.8587 0.908434 20.0386 1.27363 24.249Z" stroke="#624DE3" stroke-width="1.33333" stroke-miterlimit="8" fill="#FFFFFF" fill-rule="evenodd" transform="matrix(-1 0 0 1 1209.5 415.5)"/></g></svg>