<svg width="34" height="71" xmlns="http://www.w3.org/2000/svg" xmlns:xlink="http://www.w3.org/1999/xlink" overflow="hidden"><defs><clipPath id="clip0"><rect x="287" y="451" width="34" height="71"/></clipPath></defs><g clip-path="url(#clip0)" transform="translate(-287 -451)"><path d="M289.5 454.5 292.729 457.531C296.11 459.671 300.781 460.995 305.941 460.995 311.101 460.995 315.773 459.671 319.154 457.531L319.467 457.237 319.5 457.396C319.467 464.094 313.939 486.323 312.549 495.988 311.159 505.652 312.185 511.151 311.159 515.383 310.132 519.616 308.212 522.082 306.392 521.382 304.571 520.682 302.387 518.749 300.235 511.184 298.083 503.619 295.27 486.423 293.482 475.992 292.589 470.776 291.223 464.769 290.267 459.645Z" stroke="#624DE3" stroke-width="1.33333" stroke-miterlimit="8" fill="#FFFFFF" fill-rule="evenodd"/></g></svg>