<svg width="43" height="49" xmlns="http://www.w3.org/2000/svg" xlinkHref="http://www.w3.org/1999/xlink">
    <g transform="translate(-284 -408)">
        <path id="tooth" d="M296.225 414.429C293.081 416.2 289.066 418.238 287.393 421.446 285.721 424.654 286.323 429.767 286.189 433.676 286.055 437.586 284.483 441.295 286.59 444.904 288.698 448.513 294.552 453.625 298.835 455.33 303.117 457.034 308.202 456.8 312.283 455.129 316.364 453.458 321.382 450.818 323.323 445.305 325.263 439.791 326.768 427.795 323.925 422.047 321.081 416.3 310.443 412.156 306.261 410.82 302.08 409.483 299.37 412.658 296.225 414.429Z" stroke="#624DE3" stroke-width="1.33333" stroke-miterlimit="8" fill="#FFFFFF" fill-rule="evenodd" />
    </g>
</svg>