<svg width="33" height="71" xmlns="http://www.w3.org/2000/svg" xmlns:xlink="http://www.w3.org/1999/xlink" overflow="hidden"><defs><clipPath id="clip0"><rect x="951" y="451" width="33" height="71"/></clipPath></defs><g clip-path="url(#clip0)" transform="translate(-951 -451)"><path d="M0 0 3.22861 3.03086C6.60996 5.17109 11.2814 6.4948 16.4412 6.4948 21.6011 6.4948 26.2725 5.17109 29.654 3.03086L29.9666 2.73738 30 2.89556C29.967 9.5941 24.439 31.8228 23.0487 41.4875 21.6584 51.1521 22.6845 56.651 21.6584 60.8834 20.6324 65.1158 18.7124 67.5819 16.8918 66.8821 15.0713 66.1823 12.8866 64.2494 10.735 56.6843 8.58343 49.1192 5.76976 31.9228 3.98228 21.4917 3.0886 16.2762 1.72315 10.269 0.767327 5.14517Z" stroke="#624DE3" stroke-width="1.33333" stroke-miterlimit="8" fill="#FFFFFF" fill-rule="evenodd" transform="matrix(-1 0 0 1 982.5 454.5)"/></g></svg>