<svg width="43" height="49" xmlns="http://www.w3.org/2000/svg" xmlns:xlink="http://www.w3.org/1999/xlink" overflow="hidden"><defs><clipPath id="clip0"><rect x="945" y="408" width="43" height="49"/></clipPath></defs><g clip-path="url(#clip0)" transform="translate(-945 -408)"><path d="M10.7251 3.92863C7.58045 5.69972 3.56601 7.73802 1.89332 10.9459 0.220636 14.1538 0.822803 19.2665 0.688988 23.1761 0.555174 27.0857-1.0172 30.7949 1.09043 34.4038 3.19807 38.0126 9.05242 43.1253 13.3345 44.8295 17.6166 46.5337 22.7015 46.2997 26.7829 44.629 30.8642 42.9582 35.8823 40.3183 37.8226 34.8047 39.7629 29.2912 41.2684 17.2949 38.4248 11.5474 35.5813 5.79991 24.943 1.65637 20.7612 0.319738 16.5796-1.01689 13.8698 2.15755 10.7251 3.92863Z" stroke="#624DE3" stroke-width="1.33333" stroke-miterlimit="8" fill="#FFFFFF" fill-rule="evenodd" transform="matrix(-1 0 0 1 986.5 410.5)"/></g></svg>