<svg width="42" height="50" xmlns="http://www.w3.org/2000/svg" xlinkHref="http://www.w3.org/1999/xlink" overflow="hidden">
    <g transform="translate(-358 -192)">
        <path d="M371.285 239.298C367.617 237.692 363.114 235.919 361.48 231.47 359.846 227.021 360.546 218.089 361.48 212.602 362.414 207.116 363.848 201.73 367.083 198.552 370.318 195.374 376.321 193.199 380.89 193.534 385.458 193.868 391.395 195.273 394.496 200.559 397.598 205.845 399.432 219.661 399.498 225.248 399.565 230.834 397.564 231.437 394.896 234.079 392.228 236.722 386.759 240.034 383.491 241.105 380.223 242.175 374.953 240.904 371.285 239.298Z" stroke="#624DE3" stroke-width="1.33333" stroke-miterlimit="8" fill="#FFFFFF" fill-rule="evenodd" />
    </g>
</svg>