<svg width="36" height="71" xmlns="http://www.w3.org/2000/svg" xlinkHref="http://www.w3.org/1999/xlink" >

    <g transform="translate(-875 -453)">
        <path d="M0.0103212 0 0.487095 0.292683C6.80248 3.46988 19.3456 6.54486 24.3657 5.92581 26.039 5.71953 27.6602 5.13146 29.1507 4.27327L33 1.12332 32.938 1.84489C32.7989 2.83117 32.5858 4.09589 32.3015 5.73814 31.1646 12.3073 27.0516 27.7236 25.2795 37.2309 23.5073 46.7381 23.0056 57.929 21.6681 62.7816 20.3306 67.6342 18.993 67.4692 17.2542 66.3468 15.5154 65.2245 13.576 63.0457 11.2353 56.0473 8.89462 49.0489 5.08264 32.7084 3.21009 24.3565 1.33754 16.0047 0.334384 10.9209 0 5.93621Z" stroke="#624DE3" stroke-width="1.33333" stroke-miterlimit="8" fill="#FFFFFF" fill-rule="evenodd" transform="matrix(-1 0 0 1 910.5 455.5)" />
    </g>
</svg>