<svg width="42" height="48" xmlns="http://www.w3.org/2000/svg" xmlns:xlink="http://www.w3.org/1999/xlink" overflow="hidden"><defs><clipPath id="clip0"><rect x="872" y="409" width="42" height="48"/></clipPath></defs><g clip-path="url(#clip0)" transform="translate(-872 -409)"><path d="M0.223122 19.2303C0.453071 23.2135 0.256016 31.4087 1.99661 35.0981 3.73721 38.7875 6.69313 39.9303 10.667 41.3669 14.6409 42.8035 21.6693 44.7298 25.8402 43.7177 30.0112 42.7056 33.7553 40.518 35.693 35.294 37.6306 30.07 38.7145 17.6631 37.4665 12.3738 36.2184 7.08447 31.522 5.61517 28.2049 3.55828 24.8878 1.50128 21.3408-0.261714 17.5639 0.0320844 13.7871 0.325882 8.36805 3.46028 5.5436 5.32138 2.71915 7.18237 1.50403 8.94547 0.617231 11.1984-0.269567 13.4512-0.00682709 15.247 0.223122 19.2303Z" stroke="#624DE3" stroke-width="1.33333" stroke-miterlimit="8" fill="#FFFFFF" fill-rule="evenodd" transform="matrix(-1 0 0 1 912.5 411.5)"/></g></svg>