<svg width="31" height="74" xmlns="http://www.w3.org/2000/svg" xmlns:xlink="http://www.w3.org/1999/xlink" overflow="hidden"><defs><clipPath id="clip0"><rect x="507" y="440" width="31" height="74"/></clipPath></defs><g clip-path="url(#clip0)" transform="translate(-507 -440)"><path d="M509.623 444.5 509.813 445.121C512.312 449.25 517.82 452.446 521.904 452.699 524.627 452.868 529.438 451.897 533.569 450.13L537.5 447.77 536.785 453.838C535.894 460.259 534.715 467.482 534.012 472.848 532.606 483.581 531.033 497.352 529.393 504.034 527.753 510.717 526.414 515.105 524.172 512.945 521.93 510.785 518.181 499.748 515.939 491.074 513.696 482.4 511.521 469.473 510.717 460.9 510.316 456.614 509.672 451.88 509.5 447.927Z" stroke="#624DE3" stroke-width="1.33333" stroke-miterlimit="8" fill="#FFFFFF" fill-rule="evenodd"/></g></svg>