<svg width="46" height="44" xmlns="http://www.w3.org/2000/svg" xmlns:xlink="http://www.w3.org/1999/xlink" overflow="hidden"><defs><clipPath id="clip0"><rect x="61" y="414" width="46" height="44"/></clipPath></defs><g clip-path="url(#clip0)" transform="translate(-61 -414)"><path d="M64.7737 439.749C65.1389 443.96 64.9065 448.442 65.9687 451.158 67.0309 453.875 66.0683 455.199 71.147 456.048 76.2258 456.897 90.6986 458.73 96.4413 456.251 102.184 453.773 104.176 446.914 105.603 441.175 107.03 435.437 106.698 425.692 105.006 421.821 103.313 417.95 98.5658 419.002 95.4455 417.95 92.3252 416.897 89.7028 415.607 86.2838 415.505 82.8648 415.403 77.786 416.931 74.9312 417.338 72.0765 417.746 71.0143 416.524 69.1554 417.95 67.2965 419.376 64.674 422.432 63.7778 425.895 62.8816 429.359 64.4085 435.539 64.7737 439.749Z" stroke="#624DE3" stroke-width="1.33333" stroke-miterlimit="8" fill="#FFFFFF" fill-rule="evenodd"/></g></svg>