<svg width="36" height="64" xmlns="http://www.w3.org/2000/svg" xmlns:xlink="http://www.w3.org/1999/xlink" overflow="hidden"><defs><clipPath id="clip0"><rect x="66" y="457" width="36" height="64"/></clipPath></defs><g clip-path="url(#clip0)" transform="translate(-66 -457)"><path d="M67.7142 458.5 72.9098 459.443C76.7674 459.988 81.0085 460.29 85.4603 460.29 89.9121 460.29 94.1533 459.988 98.0107 459.443L101.487 458.812 101.499 459.205C101.541 467.687 100.449 485.096 99.1754 493.308 97.7203 502.692 94.1669 512.908 92.6779 512.476 91.1889 512.043 91.5273 496.735 90.2413 490.712 88.9554 484.689 86.8911 477.434 84.9621 476.336 83.0331 475.238 79.6152 478.133 78.6676 484.123 77.7201 490.113 80.1567 506.419 79.2768 512.276 78.3969 518.133 75.2497 522.825 73.3884 519.264 71.5272 515.704 69.0567 500.695 68.1092 490.912 67.1616 481.128 67.5677 466.818 67.7031 460.562Z" stroke="#624DE3" stroke-width="1.33333" stroke-miterlimit="8" fill="#FFFFFF" fill-rule="evenodd"/></g></svg>