<svg width="37" height="72" xmlns="http://www.w3.org/2000/svg" xmlns:xlink="http://www.w3.org/1999/xlink" overflow="hidden"><defs><clipPath id="clip0"><rect x="576" y="128" width="37" height="72"/></clipPath></defs><g clip-path="url(#clip0)" transform="translate(-576 -128)"><path d="M599.837 129.857C601.634 131.389 603.063 137.535 604.082 142.205 605.44 148.431 604.811 158.83 606.07 167.446 607.014 173.907 610.232 182.981 611.362 189.046L611.5 191.491 611.157 191.212C606.962 188.982 601.426 187.982 595.543 188.739 589.66 189.495 584.545 191.867 581.029 195.088L578.511 198.5 578.5 198.406C578.664 189.809 584.998 170.369 587.781 159.974 590.962 148.094 595.203 133.051 597.919 130.089 598.599 129.349 599.238 129.347 599.837 129.857Z" stroke="#624DE3" stroke-width="1.33333" stroke-miterlimit="8" fill="#FFFFFF" fill-rule="evenodd"/></g></svg>