<svg width="49" height="56" xmlns="http://www.w3.org/2000/svg" xmlns:xlink="http://www.w3.org/1999/xlink" overflow="hidden"><defs><clipPath id="clip0"><rect x="572" y="192" width="49" height="56"/></clipPath></defs><g clip-path="url(#clip0)" transform="translate(-572 -192)"><path d="M599.913 246.54C595.955 246.54 586.586 248.558 582.495 246.742 578.404 244.925 576.425 241.191 575.369 235.641 574.313 230.091 573.852 219.965 576.161 213.439 578.47 206.913 583.32 199.479 589.225 196.485 595.13 193.491 606.61 192.078 611.592 195.476 616.573 198.873 618.19 208.965 619.113 216.87 620.037 224.775 619.278 237.928 617.134 242.907 614.99 247.886 608.986 246.103 606.247 246.742 603.509 247.381 603.872 246.54 599.913 246.54Z" stroke="#624DE3" stroke-width="1.33333" stroke-miterlimit="8" fill="#FFFFFF" fill-rule="evenodd"/></g></svg>