<svg width="32" height="68" xmlns="http://www.w3.org/2000/svg" xmlns:xlink="http://www.w3.org/1999/xlink" overflow="hidden"><defs><clipPath id="clip0"><rect x="289" y="131" width="32" height="68"/></clipPath></defs><g clip-path="url(#clip0)" transform="translate(-289 -131)"><path d="M312.822 133.899C313.735 135.323 314.616 139.792 314.974 146.613 315.154 150.023 315.414 156.197 315.5 161.958L315.467 169.5 305.5 146.805 306.477 144.192C307.557 141.754 308.796 139.561 309.497 138.071 310.899 135.091 311.91 132.476 312.822 133.899Z" stroke="#624DE3" stroke-width="1.33333" stroke-miterlimit="8" fill="#FFFFFF" fill-rule="evenodd"/><path d="M293.532 132.503C293.81 132.464 294.196 132.78 294.745 133.39 296.943 135.83 301.44 148.096 305.536 158.658 309.633 169.22 317.527 190.11 319.325 196.762L319.5 197.5 314.593 194.469C311.703 193.348 308.525 192.729 305.19 192.729 301.854 192.729 298.677 193.348 295.787 194.469L290.894 197.491 290.59 193.748C290.092 181.081 291.793 153.465 292.347 144.019 292.822 135.922 292.697 132.619 293.532 132.503Z" stroke="#624DE3" stroke-width="1.33333" stroke-miterlimit="8" fill="#FFFFFF" fill-rule="evenodd"/></g></svg>