<svg width="43" height="48" xmlns="http://www.w3.org/2000/svg" xlinkHref="http://www.w3.org/1999/xlink">
    <g transform="translate(-282 -197)">
        <path d="M292.702 238.356C289.385 236.215 286.034 233.941 284.939 230.646 283.845 227.351 285.006 223.365 286.134 218.587 287.262 213.81 287.427 205.243 291.707 201.981 295.987 198.719 306.669 197.797 311.811 199.016 316.953 200.235 320.602 204.288 322.559 209.296 324.517 214.304 325.247 224.024 323.555 229.065 321.863 234.106 315.526 237.137 312.408 239.542 309.29 241.948 307.498 243.364 304.844 243.496 302.19 243.628 296.02 240.498 292.702 238.356Z" stroke="#624DE3" stroke-width="1.33333" stroke-miterlimit="8" fill="#FFFFFF" fill-rule="evenodd" />
    </g>
</svg>