<svg width="38" height="88" xmlns="http://www.w3.org/2000/svg" xlinkHref="http://www.w3.org/1999/xlink">
    <g transform="translate(-434 -444)">
        <path id="root" d="M436.5 450.5 436.612 450.939C439.253 456.362 450.135 462.065 455.217 462.475 460.3 462.884 468.479 458.715 470.444 453.663L470.5 453.376 470.405 456.093C469.948 461.805 468.215 475.468 466.679 483.953 465.142 492.437 462.462 499.853 461.187 507.002 459.912 514.15 459.944 522.768 459.029 526.844 458.114 530.919 457.198 531.721 455.695 531.454 454.191 531.186 451.608 529.683 450.007 525.24 448.405 520.798 447.882 512.948 446.084 504.797 444.286 496.646 440.723 484.287 439.219 476.336 437.715 468.386 437.355 462.206 437.061 457.095Z" stroke="#624DE3" stroke-width="1.33333" stroke-miterlimit="8" fill="#FFFFFF" fill-rule="evenodd" />
    </g>
</svg>