<svg width="43" height="53" xmlns="http://www.w3.org/2000/svg" xmlns:xlink="http://www.w3.org/1999/xlink" overflow="hidden"><defs><clipPath id="clip0"><rect x="431" y="406" width="43" height="53"/></clipPath></defs><g clip-path="url(#clip0)" transform="translate(-431 -406)"><path d="M433.742 425.321C433.643 428.769 432.814 436.322 434.936 441.083 437.058 445.845 442.994 451.165 446.476 453.89 449.958 456.616 452.379 457.798 455.828 457.437 459.277 457.076 464.417 455.565 467.169 451.723 469.922 447.881 471.514 439.047 472.343 434.384 473.172 429.721 474.564 427.948 472.144 423.745 469.723 419.542 462.096 411.135 457.818 409.165 453.54 407.195 450.19 410.052 446.476 411.923 442.762 413.795 437.655 418.162 435.533 420.395 433.411 422.628 433.842 421.873 433.742 425.321Z" stroke="#624DE3" stroke-width="1.33333" stroke-miterlimit="8" fill="#FFFFFF" fill-rule="evenodd"/></g></svg>