<svg width="51" height="19" xmlns="http://www.w3.org/2000/svg" xmlns:xlink="http://www.w3.org/1999/xlink" overflow="hidden"><defs><clipPath id="clip0"><rect x="795" y="381" width="51" height="19"/></clipPath></defs><g clip-path="url(#clip0)" transform="translate(-795 -381)"><path d="M10.9861 27.596C7.90215 31.1176 4.18436 33.1739 0.182362 33.1739L0.08021 33.1564 0 15.4656 15.5152 0 19.4466 0.0204724 19.5055 0.513596C19.5055 11.7873 16.1261 21.7267 10.9861 27.596Z" stroke="#624DE3" stroke-width="1.33333" stroke-miterlimit="8" fill="#FFFFFF" fill-rule="evenodd" transform="matrix(-0.708236 0.705976 0.705976 0.708236 820.677 371.055)"/><path d="M808.442 398.355C816.226 397.827 825.637 393.173 833.596 385.189L834.07 384.584 831.512 382.008 809.206 382.008 796.785 394.582 796.853 394.678C799.687 397.503 803.772 398.672 808.442 398.355Z" stroke="#624DE3" stroke-width="1.33333" stroke-miterlimit="8" fill="#FFFFFF" fill-rule="evenodd"/><rect x="0" y="0" width="4.7999" height="4.7999" fill="#FFFFFF" transform="matrix(0.854592 0.519301 0.519301 -0.854592 818.367 392.68)"/><rect x="0" y="0" width="4.79989" height="10.914" fill="#FFFFFF" transform="matrix(0.723246 0.69059 0.69059 -0.723246 824.582 391.445)"/><rect x="0" y="0" width="4.79989" height="4.79989" fill="#FFFFFF" transform="matrix(0.723246 0.69059 0.69059 -0.723246 821.188 392.505)"/></g></svg>