<svg width="19" height="50" xmlns="http://www.w3.org/2000/svg" xmlns:xlink="http://www.w3.org/1999/xlink" overflow="hidden"><defs><clipPath id="clip0"><rect x="792" y="346" width="19" height="50"/></clipPath></defs><g clip-path="url(#clip0)" transform="translate(-792 -346)"><path d="M792.98 358.827C792.663 354.157 793.831 350.072 796.657 347.238L796.741 347.178 809.327 359.61 809.327 381.517 806.537 384.287 806.146 383.98C798.162 376.021 793.508 366.611 792.98 358.827Z" stroke="#624DE3" stroke-width="1.33333" stroke-miterlimit="8" fill="#FFFFFF" fill-rule="evenodd"/><path d="M10.9999 27.8641C16.1398 21.9949 19.5193 12.0554 19.5193 0.781732L19.4281 0.0188976 15.798 0 0 15.7477 0.080105 33.4223 0.196115 33.442C4.19811 33.442 7.91591 31.3857 10.9999 27.8641Z" stroke="#624DE3" stroke-width="1.33333" stroke-miterlimit="8" fill="#FFFFFF" fill-rule="evenodd" transform="matrix(-0.705976 -0.708236 -0.708236 0.705976 820.48 370.882)"/><path d="M798.654 372.838 796.162 368.736 800.264 366.244 802.756 370.346Z" fill="#FFFFFF" fill-rule="evenodd"/><path d="M799.889 366.623 796.575 363.152 804.468 355.615 807.783 359.086Z" fill="#FFFFFF" fill-rule="evenodd"/><path d="M798.83 370.017 795.516 366.545 798.987 363.23 802.302 366.702Z" fill="#FFFFFF" fill-rule="evenodd"/></g></svg>