<svg width="19" height="50" xmlns="http://www.w3.org/2000/svg" xmlns:xlink="http://www.w3.org/1999/xlink" overflow="hidden"><defs><clipPath id="clip0"><rect x="830" y="346" width="19" height="50"/></clipPath></defs><g clip-path="url(#clip0)" transform="translate(-830 -346)"><path d="M10.9861 27.596C7.90215 31.1176 4.18436 33.1739 0.182362 33.1739L0.08021 33.1564 0 15.4656 15.5152 0 19.4466 0.0204724 19.5055 0.513596C19.5055 11.7873 16.1261 21.7267 10.9861 27.596Z" stroke="#624DE3" stroke-width="1.33333" stroke-miterlimit="8" fill="#FFFFFF" fill-rule="evenodd" transform="matrix(0.705976 0.708236 0.708236 -0.705976 820.452 370.528)"/><path d="M847.752 382.763C847.224 374.979 842.57 365.569 834.586 357.61L833.981 357.136 831.405 359.693 831.405 381.999 843.98 394.421 844.076 394.352C846.901 391.518 848.069 387.433 847.752 382.763Z" stroke="#624DE3" stroke-width="1.33333" stroke-miterlimit="8" fill="#FFFFFF" fill-rule="evenodd"/><rect x="0" y="0" width="4.7999" height="4.7999" fill="#FFFFFF" transform="matrix(0.519301 -0.854592 -0.854592 -0.519301 842.078 372.839)"/><rect x="0" y="0" width="4.79989" height="10.914" fill="#FFFFFF" transform="matrix(0.69059 -0.723246 -0.723246 -0.69059 840.843 366.623)"/><rect x="0" y="0" width="4.79989" height="4.79989" fill="#FFFFFF" transform="matrix(0.69059 -0.723246 -0.723246 -0.69059 841.902 370.017)"/></g></svg>