<svg width="51" height="19" xmlns="http://www.w3.org/2000/svg" xmlns:xlink="http://www.w3.org/1999/xlink" overflow="hidden"><defs><clipPath id="clip0"><rect x="795" y="342" width="51" height="19"/></clipPath></defs><g clip-path="url(#clip0)" transform="translate(-795 -342)"><path d="M832.338 343.453C837.008 343.136 841.093 344.304 843.927 347.13L843.987 347.214 831.555 359.8 809.648 359.8 806.878 357.01 807.184 356.619C815.143 348.635 824.554 343.981 832.338 343.453Z" stroke="#624DE3" stroke-width="1.33333" stroke-miterlimit="8" fill="#FFFFFF" fill-rule="evenodd"/><path d="M10.9999 27.8641C16.1398 21.9949 19.5193 12.0554 19.5193 0.781732L19.4281 0.0188976 15.798 0 0 15.7477 0.080105 33.4223 0.196115 33.442C4.19811 33.442 7.91591 31.3857 10.9999 27.8641Z" stroke="#624DE3" stroke-width="1.33333" stroke-miterlimit="8" fill="#FFFFFF" fill-rule="evenodd" transform="matrix(0.708236 -0.705976 -0.705976 -0.708236 820.283 370.953)"/><path d="M818.326 349.127 822.428 346.635 824.921 350.737 820.819 353.229Z" fill="#FFFFFF" fill-rule="evenodd"/><path d="M824.541 350.362 828.013 347.048 835.55 354.941 832.078 358.256Z" fill="#FFFFFF" fill-rule="evenodd"/><path d="M821.148 349.303 824.619 345.988 827.934 349.46 824.463 352.775Z" fill="#FFFFFF" fill-rule="evenodd"/></g></svg>