<svg width="39" height="67" xmlns="http://www.w3.org/2000/svg" xmlns:xlink="http://www.w3.org/1999/xlink" overflow="hidden"><defs><clipPath id="clip0"><rect x="1021" y="453" width="39" height="67"/></clipPath></defs><g clip-path="url(#clip0)" transform="translate(-1021 -453)"><path d="M0.0206617 0 0.339747 0.307598C3.63784 2.64153 11.3588 4.27907 20.3576 4.27907 26.3569 4.27907 31.7881 3.5513 35.7196 2.37458L36.9888 1.81109 37 3.52482C36.7715 13.7669 34.6856 35.7531 33.3246 44.2088 31.7691 53.8725 29.03 56.6524 27.6437 57.91 26.2573 59.1676 25.5471 55.494 25.0061 51.7544 24.4651 48.0147 24.8032 40.5684 24.3974 35.4718 23.9916 30.3752 23.9578 23.7231 22.5714 21.1749 21.1851 18.6266 17.6006 18.0309 16.079 20.182 14.5573 22.3331 13.9486 28.0586 13.4414 34.0818 12.9342 40.1051 14.1515 51.7875 13.0356 56.3215 11.9198 60.8554 8.43679 63.3044 6.74605 61.2857 5.0553 59.2669 3.90559 51.6552 2.89115 44.2088 1.8767 36.7625 1.03127 24.5836 0.659364 16.6078 0.473409 12.62 0.126846 8.30943 0 4.61929Z" stroke="#624DE3" stroke-width="1.33333" stroke-miterlimit="8" fill="#FFFFFF" fill-rule="evenodd" transform="matrix(-1 0 0 1 1059.5 456.5)"/></g></svg>