<svg width="50" height="47" xmlns="http://www.w3.org/2000/svg" xmlns:xlink="http://www.w3.org/1999/xlink" overflow="hidden"><defs><clipPath id="clip0"><rect x="1014" y="410" width="50" height="47"/></clipPath></defs><g clip-path="url(#clip0)" transform="translate(-1014 -410)"><path d="M4.0813 3.8203C1.49749 5.86094 0.536793 8.16933 0.106211 12.2507-0.324371 16.3321 0.636222 23.4913 1.49749 28.3087 2.35876 33.1261 2.62376 38.5791 5.27382 41.155 7.92388 43.731 12.5615 43.2961 17.3978 43.7645 22.2342 44.2328 29.5881 46.1732 34.2919 43.9652 38.9958 41.7572 43.7328 36.5718 45.6209 30.5166 47.509 24.4615 47.4097 12.5184 45.6209 7.63406 43.8321 2.74977 38.5651 2.14759 34.8882 1.21088 31.2113 0.274165 26.7725 2.2145 23.5592 2.01378 20.346 1.81305 18.5241-0.127284 15.609 0.00653276 12.694 0.140349 6.6651 1.77965 4.0813 3.8203Z" stroke="#624DE3" stroke-width="1.33333" stroke-miterlimit="8" fill="#FFFFFF" fill-rule="evenodd" transform="matrix(-1 0 0 1 1062.5 411.5)"/></g></svg>