<svg width="40" height="58" xmlns="http://www.w3.org/2000/svg" xmlns:xlink="http://www.w3.org/1999/xlink" overflow="hidden"><defs><clipPath id="clip0"><rect x="66" y="136" width="40" height="58"/></clipPath></defs><g clip-path="url(#clip0)" transform="translate(-66 -136)"><path d="M96.4973 140.611C98.0097 139.876 100.969 142.784 102.415 149.436 103.862 156.088 104.782 173.404 105.177 180.524 105.571 187.644 105.769 190.719 104.782 192.157 104.289 192.875 103.73 192.365 102.884 191.555L102.47 191.28 100.94 189.688C97.3727 187.184 92.444 185.635 87 185.635 84.278 185.635 81.6848 186.022 79.3262 186.722L73.194 189.624 71.6422 189.549C68.9134 188.112 69.0778 183.666 68.6832 177.716 68.2887 171.766 68.5517 159.398 69.275 153.849 69.9983 148.3 71.7079 143.854 73.023 144.422 74.3381 144.99 75.8176 152.344 77.1655 157.258 78.5135 162.172 79.5327 170.061 81.1108 173.905 82.6889 177.749 84.7273 180.29 86.6342 180.323 88.541 180.357 91.4342 178.518 92.552 174.106 93.6699 169.693 92.6836 159.431 93.3411 153.849 93.9986 148.266 94.985 141.347 96.4973 140.611Z" stroke="#624DE3" stroke-width="1.33333" stroke-miterlimit="8" fill="#FFFFFF" fill-rule="evenodd"/><path d="M86.4293 175.861C87.5069 173.188 90.2961 158.71 89.2818 152.317 88.2676 145.923 81.8652 137.568 80.3438 137.5 78.8224 137.433 79.7416 146.769 80.1536 151.911 80.5656 157.053 81.9603 164.495 82.816 168.351 83.6717 172.207 85.3516 178.533 86.4293 175.861Z" stroke="#624DE3" stroke-width="1.33333" stroke-miterlimit="8" fill="#FFFFFF" fill-rule="evenodd"/></g></svg>