<svg width="47" height="44" xmlns="http://www.w3.org/2000/svg" xlinkHref="http://www.w3.org/1999/xlink">
    <g transform="translate(-60 -191)">
        <path d="M104.514 228.349C102.916 231.349 101.184 232.849 95.7241 233.748 90.2639 234.648 77.0462 234.848 71.7525 233.748 66.4588 232.649 65.6264 231.416 63.9617 227.15 62.297 222.884 60.8987 213.286 61.7643 208.154 62.63 203.021 65.1603 198.789 69.1556 196.356 73.1508 193.923 80.6087 193.29 85.7359 193.557 90.8632 193.823 96.7563 196.289 99.9192 197.956 103.082 199.622 103.981 200.588 104.713 203.555 105.446 206.521 105.346 211.62 105.313 215.752 105.28 219.885 106.112 225.35 104.514 228.349Z" stroke="#624DE3" stroke-width="1.33333" stroke-miterlimit="8" fill="#FFFFFF" fill-rule="evenodd" />
    </g>
</svg>