<svg width="31" height="74" xmlns="http://www.w3.org/2000/svg" xmlns:xlink="http://www.w3.org/1999/xlink" overflow="hidden"><defs><clipPath id="clip0"><rect x="733" y="440" width="31" height="74"/></clipPath></defs><g clip-path="url(#clip0)" transform="translate(-733 -440)"><path d="M0.123334 0 0.312551 0.620492C2.81169 4.74974 8.32038 7.94585 12.4041 8.19896 15.1266 8.36777 19.9383 7.39733 24.0693 5.62993L28 3.2701 27.2854 9.33779C26.3942 15.759 25.2146 22.9818 24.5117 28.3482 23.106 39.0811 21.5329 52.8517 19.893 59.5344 18.2531 66.2172 16.9142 70.6049 14.6719 68.4448 12.4295 66.2847 8.68089 55.248 6.43854 46.5739 4.19619 37.8999 2.02067 24.9731 1.21742 16.4003 0.815794 12.1139 0.171613 7.38021 0 3.42711Z" stroke="#624DE3" stroke-width="1.33333" stroke-miterlimit="8" fill="#FFFFFF" fill-rule="evenodd" transform="matrix(-1 0 0 1 763.5 444.5)"/></g></svg>