<svg width="31" height="43" xmlns="http://www.w3.org/2000/svg" xmlns:xlink="http://www.w3.org/1999/xlink" overflow="hidden"><defs><clipPath id="clip0"><rect x="734" y="405" width="31" height="43"/></clipPath></defs><g clip-path="url(#clip0)" transform="translate(-734 -405)"><path d="M0.108739 9.00771C-0.160197 13.5603 0.00794103 22.9014 1.31895 27.8249 2.62996 32.7484 5.62193 36.4242 7.97512 38.5487 10.3283 40.6732 12.2781 41.6175 15.4381 40.5721 18.5981 39.5267 24.7164 37.2673 26.9351 32.2763 29.1538 27.2854 29.2547 15.786 28.7504 10.6264 28.2462 5.46678 28.2126 3.00508 23.9096 1.31895 19.6066-0.367178 6.83214-0.198512 2.93257 0.50961-0.967005 1.21773 0.377675 4.4551 0.108739 9.00771Z" stroke="#624DE3" stroke-width="1.33333" stroke-miterlimit="8" fill="#FFFFFF" fill-rule="evenodd" transform="matrix(-1 0 0 1 764.5 406.5)"/></g></svg>