<svg width="32" height="65" xmlns="http://www.w3.org/2000/svg" xlinkHref="http://www.w3.org/1999/xlink">
    <g transform="translate(-362 -132)">
        <path d="M381.398 133.782C383.394 134.98 385.429 139.849 386.811 145.385 388.653 152.766 389.404 170.297 390.496 178.205 391.315 184.136 393.094 188.251 393.5 190.8L393.44 191.692 387.573 188.406C385.197 187.572 382.586 187.11 379.844 187.11 374.362 187.11 369.398 188.956 365.805 191.94L363.727 194.5 363.5 192.86C363.516 184.911 369.391 167.034 371.66 158.038 374.253 147.757 376.915 136.027 379.44 133.918 380.071 133.39 380.732 133.382 381.398 133.782Z" stroke="#624DE3" stroke-width="1.33333" stroke-miterlimit="8" fill="#FFFFFF" fill-rule="evenodd" />
    </g>
</svg>