<svg width="39" height="67" xmlns="http://www.w3.org/2000/svg" xmlns:xlink="http://www.w3.org/1999/xlink" overflow="hidden"><defs><clipPath id="clip0"><rect x="212" y="453" width="39" height="67"/></clipPath></defs><g clip-path="url(#clip0)" transform="translate(-212 -453)"><path d="M213.52 456.5 213.831 456.808C217.04 459.142 224.552 460.779 233.307 460.779 239.145 460.779 244.429 460.051 248.254 458.875L249.489 458.311 249.5 460.025C249.278 470.267 247.248 492.253 245.924 500.709 244.41 510.373 241.745 513.152 240.397 514.41 239.048 515.668 238.357 511.994 237.83 508.254 237.304 504.515 237.633 497.068 237.238 491.972 236.843 486.875 236.81 480.223 235.461 477.675 234.113 475.127 230.625 474.531 229.144 476.682 227.664 478.833 227.072 484.559 226.578 490.582 226.085 496.605 227.269 508.288 226.183 512.822 225.098 517.355 221.709 519.804 220.064 517.786 218.419 515.767 217.3 508.155 216.313 500.709 215.326 493.263 214.503 481.084 214.142 473.108 213.961 469.12 213.623 464.809 213.5 461.119Z" stroke="#624DE3" stroke-width="1.33333" stroke-miterlimit="8" fill="#FFFFFF" fill-rule="evenodd"/></g></svg>