<svg width="50" height="47" xmlns="http://www.w3.org/2000/svg" xmlns:xlink="http://www.w3.org/1999/xlink" overflow="hidden"><defs><clipPath id="clip0"><rect x="208" y="410" width="50" height="47"/></clipPath></defs><g clip-path="url(#clip0)" transform="translate(-208 -410)"><path d="M213.581 415.32C210.998 417.361 210.037 419.669 209.606 423.751 209.176 427.832 210.136 434.991 210.998 439.809 211.859 444.626 212.124 450.079 214.774 452.655 217.424 455.231 222.062 454.796 226.898 455.265 231.734 455.733 239.088 457.673 243.792 455.465 248.496 453.257 253.233 448.072 255.121 442.017 257.009 435.962 256.91 424.018 255.121 419.134 253.332 414.25 248.065 413.648 244.388 412.711 240.711 411.774 236.272 413.715 233.059 413.514 229.846 413.313 228.024 411.373 225.109 411.507 222.194 411.64 216.165 413.28 213.581 415.32Z" stroke="#624DE3" stroke-width="1.33333" stroke-miterlimit="8" fill="#FFFFFF" fill-rule="evenodd"/></g></svg>