<svg width="32" height="80" xmlns="http://www.w3.org/2000/svg" xmlns:xlink="http://www.w3.org/1999/xlink" overflow="hidden"><defs><clipPath id="clip0"><rect x="435" y="115" width="32" height="80"/></clipPath></defs><g clip-path="url(#clip0)" transform="translate(-435 -115)"><path d="M452.943 117.561C455.335 116.733 457.694 124.483 459.431 131.868 461.167 139.254 462.379 152.104 463.362 161.874 464.345 171.643 465.132 183.897 465.328 190.488L465.5 192.261 460.639 188.673C458.088 187.491 455.283 186.838 452.339 186.838 449.395 186.838 446.59 187.491 444.039 188.673L437.5 193.5 438.137 187.495C438.969 181.165 440.116 174.011 440.754 168.63 442.032 157.866 443.048 145.347 445.079 136.836 447.111 128.324 450.551 118.389 452.943 117.561Z" stroke="#624DE3" stroke-width="1.33333" stroke-miterlimit="8" fill="#FFFFFF" fill-rule="evenodd"/></g></svg>